<?xml version="1.0" encoding="UTF-8"?>
<svg width="16px" height="20px" viewBox="0 0 16 20" version="1.1" xmlns="http://www.w3.org/2000/svg" xmlns:xlink="http://www.w3.org/1999/xlink">
    <!-- Generator: Sketch 43.2 (39069) - http://www.bohemiancoding.com/sketch -->
    <title>yelp</title>
    <desc>Created with Sketch.</desc>
    <defs></defs>
    <g id="Page-1" stroke="none" stroke-width="1" fill="none" fill-rule="evenodd">
        <g id="yelp" fill-rule="nonzero" fill="#5C9901">
            <path d="M10.538,12.471 L15.061,13.937 C15.061,13.937 15.708,14.056 15.701,14.489 C15.697,14.794 15.504,15.141 15.504,15.141 L13.594,17.897 C13.594,17.897 13.253,18.183 12.908,18.183 C12.564,18.183 12.167,17.646 12.167,17.646 L9.75,13.573 C9.75,13.573 9.478,12.979 9.8,12.652 C10.095,12.352 10.538,12.471 10.538,12.471 Z M9.57,10.6 C9.801,10.996 10.44,10.881 10.44,10.881 L14.953,9.55 C14.953,9.55 15.568,9.297 15.656,8.961 C15.742,8.624 15.554,8.218 15.554,8.218 L13.397,5.654 C13.397,5.654 13.21,5.33 12.822,5.297 C12.394,5.26 12.131,5.783 12.131,5.783 L9.581,9.833 C9.582,9.832 9.357,10.235 9.57,10.6 Z M7.438,9.021 C7.969,8.889 8.054,8.11 8.054,8.11 L8.018,1.625 C8.018,1.625 7.938,0.825 7.582,0.608 C7.023,0.266 6.858,0.444 6.698,0.468 L2.951,1.873 C2.951,1.873 2.584,1.996 2.393,2.305 C2.12,2.742 2.67,3.384 2.67,3.384 L6.564,8.742 C6.564,8.742 6.949,9.143 7.438,9.021 Z M6.513,11.645 C6.526,11.145 5.918,10.844 5.918,10.844 L1.89,8.791 C1.89,8.791 1.293,8.543 1.003,8.716 C0.782,8.848 0.585,9.088 0.566,9.299 L0.304,12.558 C0.304,12.558 0.265,13.123 0.41,13.38 C0.615,13.744 1.291,13.491 1.291,13.491 L5.993,12.442 C6.175,12.318 6.495,12.306 6.513,11.645 Z M7.682,13.404 C7.278,13.195 6.795,13.628 6.795,13.628 L3.647,17.126 C3.647,17.126 3.254,17.661 3.354,17.989 C3.448,18.297 3.604,18.45 3.824,18.558 L6.986,19.565 C6.986,19.565 7.369,19.645 7.66,19.56 C8.072,19.439 7.996,18.788 7.996,18.788 L8.067,14.052 C8.067,14.053 8.051,13.597 7.682,13.404 Z" id="Shape"></path>
        </g>
    </g>
</svg>